# xmcd
#
# Track frame offsets:
#	150
#	17550
#	38785
#	58758
#	75933
#	98523
#	119510
#	137275
#	152630
#	173323
#
# Disc length: 2575 seconds
#
# Revision: 9
# Processed by: cddbd v1.5.2PL0 Copyright (c) Steve Scherf et al.
# Submitted via: EasyCDDAExtractor 15.3.0.1
#
DISCID=640a0d0a
DTITLE=Yuri - Espejos Del Alma
DYEAR=1995
DGENRE=Latin
TTITLE0=Ojos Que No Ven
TTITLE1=De Que Te Vale Fingir
TTITLE2=Que Sabes Tu Del Amor (Meaning Of Love)
TTITLE3=Ni Una Lagrima (Possiamo Realizare I Nostri Sogni)
TTITLE4=Estoy Enamorada
TTITLE5=Engañame
TTITLE6=Mueve Tu Cuerpo
TTITLE7=De Amante A Señora
TTITLE8=La Ultima En Saberlo (The Last To Know)
TTITLE9=Que Me Va A Pasar (I Can't Keep My Hands Of You)
EXTD=
EXTT0=
EXTT1=
EXTT2=
EXTT3=
EXTT4=
EXTT5=
EXTT6=
EXTT7=
EXTT8=
EXTT9=
PLAYORDER=
